<svg xmlns="http://www.w3.org/2000/svg" width="600" height="600">
    <g>
        <circle cx="-265" cy="-160.002" r="50" fill="#cac5c0" transform="matrix(6 0 0 6 1890 1260.012)"/>
        <path d="M219.48 268.062c35.604-33.462 71.46-50.184 107.634-50.184 39.384 0 70.968 15.636 94.722 46.926 22.092 28.62 33.174 63.126 33.174 103.62 0 44.256-12.948 83.094-38.85 116.55-28.608 36.684-64.218 55.044-106.842 55.044-51.282 0-92.286-22.14-123.024-66.378-27.54-38.862-41.298-85.002-41.298-138.426 0-56.64 15.642-108.846 46.944-156.606 31.278-47.748 73.104-81.612 125.436-101.568 29.682-11.328 61.008-17.034 93.9-17.034v25.104c-70.146 3.786-122.484 31.848-157.044 84.186-17.748 27.006-29.37 59.898-34.752 98.766zm-4.872 48.552c-.516 9.708-.798 19.428-.798 29.142 0 37.218 6.468 71.76 19.416 103.614 16.71 41.532 41.298 62.31 73.674 62.31 28.044 0 49.08-14.286 63.12-42.906 10.782-22.104 16.182-48.81 16.182-80.13 0-33.426-5.142-62.052-15.378-85.794-14.04-32.376-35.616-48.552-64.758-48.552-35.598-.007-66.102 20.784-91.458 62.316z" fill="#0d0f0f"/>
    </g>
</svg>
